<svg width="50" height="50" viewBox="0 0 50 50" fill="none" xmlns="http://www.w3.org/2000/svg">
<path d="M25.1951 33.2737C24.5131 33.2737 23.9602 32.7228 23.9602 32.0433V27.1219C23.9602 26.4423 24.5131 25.8915 25.1951 25.8915C25.8772 25.8915 26.4301 26.4423 26.4301 27.1219V32.0433C26.4301 32.7228 25.8772 33.2737 25.1951 33.2737Z" fill="white"/>
<path d="M20.2554 33.2737C19.5733 33.2737 19.0204 32.7228 19.0204 32.0433V27.1219C19.0204 26.4423 19.5733 25.8915 20.2554 25.8915C20.9374 25.8915 21.4903 26.4423 21.4903 27.1219V32.0433C21.4903 32.7228 20.9374 33.2737 20.2554 33.2737Z" fill="white"/>
<path d="M30.1349 33.2737C29.4529 33.2737 28.9 32.7228 28.9 32.0433V27.1219C28.9 26.4423 29.4529 25.8915 30.1349 25.8915C30.817 25.8915 31.3699 26.4423 31.3699 27.1219V32.0433C31.3699 32.7228 30.817 33.2737 30.1349 33.2737Z" fill="white"/>
<path fill-rule="evenodd" clip-rule="evenodd" d="M21.6578 12.8153C21.9962 12.2253 22.7506 12.0203 23.3427 12.3574C23.9349 12.6946 24.1406 13.4462 23.8022 14.0361L19.8253 20.97H30.5649L26.588 14.0361C26.2497 13.4462 26.4554 12.6946 27.0476 12.3574C27.6397 12.0203 28.3941 12.2253 28.7325 12.8153L33.4096 20.97H35.7243C37.2968 20.97 38.4688 22.4145 38.1394 23.9463L35.4931 36.2499C35.2491 37.3846 34.2427 38.1951 33.078 38.1951H17.3123C16.1476 38.1951 15.1412 37.3846 14.8972 36.2499L12.2509 23.9463C11.9214 22.4145 13.0935 20.97 14.666 20.97H16.9806L21.6578 12.8153ZM17.3123 35.7344L14.666 23.4307H35.7243L33.078 35.7344H17.3123Z" fill="white"/>
</svg>
