<svg width="50" height="50" viewBox="0 0 50 50" fill="none" xmlns="http://www.w3.org/2000/svg">
<path fill-rule="evenodd" clip-rule="evenodd" d="M30.75 17.7778C30.75 20.9688 28.1756 23.5556 25 23.5556C21.8244 23.5556 19.25 20.9688 19.25 17.7778C19.25 14.5868 21.8244 12 25 12C28.1756 12 30.75 14.5868 30.75 17.7778ZM27.875 17.7778C27.875 19.3733 26.5879 20.6667 25 20.6667C23.4121 20.6667 22.125 19.3733 22.125 17.7778C22.125 16.1823 23.4121 14.8889 25 14.8889C26.5879 14.8889 27.875 16.1823 27.875 17.7778Z" fill="white"/>
<path fill-rule="evenodd" clip-rule="evenodd" d="M36.5 32.4629C36.5 31.837 36.3048 31.2218 35.8984 30.7474C33.2622 27.6705 29.3575 25.7222 25 25.7222C20.6424 25.7222 16.7378 27.6705 14.1016 30.7474C13.6952 31.2218 13.5 31.837 13.5 32.4629V35.1111C13.5 36.7066 14.7872 38 16.375 38H33.625C35.2129 38 36.5 36.7066 36.5 35.1111V32.4629ZM33.625 32.5231C31.5137 30.1198 28.4338 28.6111 25 28.6111C21.5663 28.6111 18.4863 30.1198 16.375 32.5231V35.1111H33.625V32.5231Z" fill="white"/>
</svg>
