<svg width="93" height="93" viewBox="0 0 93 93" fill="none" xmlns="http://www.w3.org/2000/svg">
<path fill-rule="evenodd" clip-rule="evenodd" d="M0 46.5C0 20.8188 20.8188 0 46.5 0C72.1812 0 93 20.8188 93 46.5C93 72.1812 72.1812 93 46.5 93C20.8188 93 0 72.1812 0 46.5ZM46.5023 21.7C39.767 21.7 38.9217 21.7295 36.2764 21.8498C33.6362 21.9707 31.8341 22.3888 30.2572 23.002C28.626 23.6354 27.2424 24.4828 25.8639 25.8617C24.4844 27.2403 23.6369 28.6238 23.0014 30.2544C22.3867 31.832 21.9681 33.6346 21.8494 36.2737C21.731 38.9191 21.7 39.7649 21.7 46.5002C21.7 53.2355 21.73 54.0783 21.8498 56.7236C21.9713 59.3638 22.3892 61.1659 23.002 62.7428C23.636 64.374 24.4832 65.7576 25.8623 67.1361C27.2403 68.5156 28.6238 69.365 30.2541 69.9986C31.832 70.6118 33.6346 71.0297 36.2743 71.1506C38.9197 71.2711 39.7645 71.3006 46.4992 71.3006C53.2351 71.3006 54.0778 71.2711 56.7232 71.1506C59.3633 71.0297 61.1675 70.6118 62.7455 69.9986C64.3762 69.365 65.7576 68.5156 67.1355 67.1361C68.515 65.7576 69.3625 64.374 69.998 62.7434C70.6077 61.1659 71.0262 59.3633 71.1502 56.7242C71.269 54.0787 71.3 53.2355 71.3 46.5002C71.3 39.7649 71.269 38.9197 71.1502 36.2743C71.0262 33.634 70.6077 31.832 69.998 30.255C69.3625 28.6239 68.515 27.2403 67.1355 25.8617C65.756 24.4822 64.3765 23.635 62.744 23.002C61.1628 22.3888 59.3598 21.9707 56.7195 21.8498C54.0741 21.7295 53.232 21.7 46.4946 21.7H46.5023Z" fill="black"/>
</svg>
