<svg width="86" height="86" viewBox="0 0 86 86" fill="none" xmlns="http://www.w3.org/2000/svg">
<path d="M42.78 0C19.1915 0 0 19.1915 0 42.78C0 66.3685 19.1915 85.56 42.78 85.56C66.3704 85.56 85.56 66.3685 85.56 42.78C85.56 19.1915 66.3704 0 42.78 0ZM61.3298 51.2151C65.4906 54.9091 66.3555 56.2278 66.4969 56.4529C68.2211 59.1871 64.5848 59.52 64.5848 59.52H56.9216C56.9216 59.52 55.056 59.5405 53.462 58.484C50.8636 56.7821 48.1424 53.4824 46.2303 54.0553C44.6251 54.5352 44.64 56.704 44.64 58.5584C44.64 59.2224 44.069 59.52 42.78 59.52C41.491 59.52 40.9553 59.52 40.3843 59.52C36.1863 59.52 31.6312 58.1064 27.0872 53.3578C20.659 46.6451 15.0214 33.1229 15.0214 33.1229C15.0214 33.1229 14.6884 32.4421 15.0511 32.0273C15.4622 31.5623 16.58 31.6219 16.58 31.6219L24.0107 31.62C24.0107 31.62 24.7101 31.7521 25.2123 32.1055C25.6271 32.3956 25.8577 32.9499 25.8577 32.9499C25.8577 32.9499 27.1058 37.0717 28.6961 39.6998C31.8023 44.8297 33.2475 44.9599 34.3021 44.4075C35.8422 43.6077 35.34 38.1542 35.34 38.1542C35.34 38.1542 35.4088 35.8124 34.6053 34.769C33.9859 33.9617 32.8011 33.5321 32.284 33.4651C31.8655 33.4112 32.5649 32.6783 33.4558 32.2598C34.6462 31.7297 36.2663 31.594 39.06 31.62C41.2343 31.6405 41.8612 31.7707 42.7093 31.966C45.2743 32.5574 44.64 34.118 44.64 39.5975C44.64 41.3534 44.3982 43.8216 45.7225 44.64C46.2935 44.9934 48.2503 45.4249 51.7322 39.7705C53.3857 37.0884 54.7007 32.6393 54.7007 32.6393C54.7007 32.6393 54.9723 32.1501 55.3945 31.9083C55.826 31.6609 55.813 31.6665 56.4045 31.6665C56.996 31.6665 62.9275 31.62 64.2295 31.62C65.5297 31.62 66.7498 31.6051 66.96 32.3677C67.2613 33.4633 66.0002 37.2167 62.8048 41.2901C57.554 47.975 56.9718 47.35 61.3298 51.2151Z" fill="black"/>
</svg>
