<svg xmlns="http://www.w3.org/2000/svg" version="1.1" xmlns:xlink="http://www.w3.org/1999/xlink" xmlns:svgjs="http://svgjs.dev/svgjs" width="1500" height="1850" viewBox="0 0 1500 1850"><g transform="matrix(1,0,0,1,-0.6945235288038702,0.5657492354741862)"><svg viewBox="0 0 265 327" data-background-color="#ffffff" preserveAspectRatio="xMidYMid meet" height="1850" width="1500" xmlns="http://www.w3.org/2000/svg" xmlns:xlink="http://www.w3.org/1999/xlink"><g id="tight-bounds" transform="matrix(1,0,0,1,0.12356282940919527,-0.10000000000002274)"><svg viewBox="0 0 264.75372585262005 327.2" height="327.2" width="264.75372585262005"><g><svg viewBox="0 0 395.52 488.80952886774753" height="327.2" width="264.75372585262005"><g transform="matrix(1,0,0,1,0,283.5134802542976)"><svg viewBox="0 0 395.52 205.29604861344995" height="205.29604861344995" width="395.52"><g id="textblocktransform"><svg viewBox="0 0 395.52 205.29604861344995" height="205.29604861344995" width="395.52" id="textblock"><g><svg viewBox="0 0 395.52 127.73672760022261" height="127.73672760022261" width="395.52"><g transform="matrix(1,0,0,1,0,0)"><svg width="395.52" viewBox="-1.6085700000000038 -31.65901375 131.81394780689902 42.57046375" height="127.73672760022261" data-palette-color="#d2d6dc"><path d="M29.628 4.797l-22.193 6.114-9.044-32.827 3.24-0.892 8.255 29.964 18.953-5.222zM45.033 3.678v0c-2.383 0.285-4.601 0.066-6.655-0.656-2.047-0.722-3.866-1.817-5.458-3.285-1.592-1.468-2.891-3.179-3.897-5.134-1.013-1.96-1.648-4.019-1.906-6.178v0c-0.269-2.251-0.129-4.449 0.42-6.596 0.55-2.14 1.451-4.098 2.703-5.872 1.258-1.775 2.798-3.248 4.618-4.419 1.828-1.165 3.867-1.882 6.118-2.151v0c2.383-0.285 4.603-0.053 6.659 0.694 2.051 0.755 3.866 1.875 5.447 3.358 1.581 1.49 2.874 3.205 3.878 5.146 1.004 1.941 1.633 3.974 1.887 6.1v0c0.27 2.257 0.13 4.456-0.42 6.596-0.55 2.14-1.444 4.1-2.682 5.88-1.238 1.773-2.769 3.235-4.592 4.385-1.83 1.152-3.87 1.862-6.12 2.132zM30.453-11.973v0c0.221 1.847 0.733 3.582 1.538 5.204 0.806 1.629 1.843 3.036 3.113 4.22 1.269 1.184 2.722 2.072 4.357 2.662 1.629 0.598 3.367 0.786 5.213 0.566v0c1.933-0.231 3.622-0.842 5.069-1.834 1.438-0.998 2.626-2.237 3.564-3.719 0.932-1.474 1.585-3.09 1.958-4.847 0.368-1.749 0.448-3.498 0.24-5.246v0c-0.22-1.84-0.731-3.565-1.535-5.174-0.803-1.609-1.847-3.015-3.132-4.218-1.291-1.195-2.743-2.083-4.357-2.662-1.613-0.579-3.34-0.759-5.18-0.539v0c-1.906 0.228-3.583 0.831-5.031 1.809-1.442 0.971-2.631 2.198-3.569 3.68-0.931 1.481-1.59 3.097-1.979 4.849-0.387 1.758-0.477 3.508-0.269 5.249zM78.707 2.858v0c-2.271-0.113-4.354-0.703-6.25-1.772-1.902-1.076-3.532-2.478-4.887-4.207-1.356-1.729-2.373-3.635-3.051-5.718-0.684-2.083-0.973-4.21-0.865-6.381v0c0.114-2.304 0.615-4.465 1.503-6.483 0.881-2.025 2.064-3.799 3.548-5.321 1.491-1.528 3.215-2.707 5.172-3.538 1.964-0.83 4.081-1.189 6.351-1.077v0c3.349 0.166 6.045 0.987 8.088 2.464 2.036 1.476 3.542 3.343 4.518 5.601v0l-2.673 1.599c-0.981-2.165-2.355-3.785-4.124-4.86-1.769-1.082-3.771-1.679-6.009-1.79v0c-1.884-0.093-3.605 0.222-5.163 0.945-1.558 0.724-2.913 1.728-4.064 3.013-1.152 1.291-2.05 2.769-2.693 4.432-0.643 1.664-1.01 3.404-1.1 5.222v0c-0.095 1.918 0.134 3.748 0.689 5.49 0.555 1.736 1.388 3.296 2.501 4.68 1.119 1.384 2.436 2.49 3.95 3.32 1.507 0.829 3.157 1.288 4.948 1.377v0c2.077 0.103 4.067-0.319 5.97-1.266 1.903-0.947 3.753-2.464 5.553-4.551v0l-0.176 3.546c-3.416 3.735-7.328 5.494-11.736 5.275zM89.635 3.16l0.701-14.133-7.56-0.375 0.128-2.587 10.387 0.516-0.829 16.719zM110.422 7.701v0c-2.342-0.526-4.36-1.471-6.056-2.835-1.689-1.363-3.039-3.002-4.051-4.918-1.012-1.915-1.666-3.961-1.963-6.139-0.302-2.186-0.215-4.339 0.262-6.459v0c0.497-2.212 1.362-4.238 2.594-6.079 1.232-1.835 2.734-3.38 4.506-4.636 1.778-1.254 3.72-2.13 5.827-2.627 2.112-0.489 4.274-0.485 6.485 0.011v0c2.342 0.526 4.357 1.484 6.047 2.875 1.682 1.396 3.021 3.056 4.016 4.981 0.994 1.931 1.641 3.98 1.941 6.144 0.3 2.165 0.215 4.291-0.254 6.379v0c-0.498 2.218-1.363 4.244-2.595 6.08-1.232 1.835-2.728 3.385-4.487 4.649-1.758 1.259-3.689 2.127-5.792 2.605-2.109 0.476-4.269 0.466-6.48-0.031zM101.892-11.914v0c-0.408 1.815-0.502 3.621-0.284 5.419 0.217 1.805 0.726 3.477 1.528 5.017 0.802 1.54 1.876 2.86 3.22 3.962 1.337 1.106 2.913 1.863 4.727 2.271v0c1.899 0.426 3.696 0.413 5.39-0.041 1.689-0.461 3.222-1.234 4.6-2.318 1.37-1.079 2.524-2.385 3.462-3.917 0.93-1.527 1.588-3.148 1.974-4.865v0c0.406-1.808 0.499-3.605 0.278-5.391-0.221-1.785-0.737-3.459-1.548-5.021-0.819-1.557-1.892-2.878-3.22-3.961-1.328-1.084-2.896-1.829-4.705-2.235v0c-1.873-0.421-3.655-0.411-5.346 0.029-1.683 0.435-3.213 1.195-4.591 2.279-1.371 1.086-2.532 2.39-3.482 3.913-0.951 1.529-1.619 3.148-2.003 4.859z" opacity="1" transform="matrix(1,0,0,1,0,0)" fill="#d2d6dc" class="wordmark-text-0" data-fill-palette-color="primary" id="text-0"></path></svg></g></svg></g><g transform="matrix(1,0,0,1,135.1670038450158,138.538861446076)"><svg viewBox="0 0 125.18599230996837 66.75718716737397" height="66.75718716737397" width="125.18599230996837"><g transform="matrix(1,0,0,1,0,0)"><svg width="125.18599230996837" viewBox="1.25 -37.75 96.19 51.3" height="66.75718716737397" data-palette-color="#d2d6dc"><path d="M1.7 0L1.7-1.5Q3.25-1.5 3.85-2.27 4.45-3.05 4.55-4.42 4.65-5.8 4.65-7.6L4.65-7.6 4.65-31.25Q4.65-32.05 4.67-32.77 4.7-33.5 4.8-34.5L4.8-34.5Q3.9-34.45 3.03-34.4 2.15-34.35 1.25-34.3L1.25-34.3 1.25-36.4Q3.45-36.4 4.67-36.6 5.9-36.8 6.53-37.1 7.15-37.4 7.5-37.75L7.5-37.75 8.95-37.75 9-5.3Q9-4.3 8.95-3.53 8.9-2.75 8.75-1.9L8.75-1.9Q9.55-1.95 10.33-1.98 11.1-2 11.9-2.05L11.9-2.05 11.9 0 1.7 0ZM28.2 0.8L28.2 0.8Q24.7 0.8 21.85-0.83 19-2.45 17.32-5.33 15.65-8.2 15.65-11.9L15.65-11.9Q15.65-15.85 17.3-19 18.95-22.15 21.8-23.98 24.65-25.8 28.2-25.8L28.2-25.8Q31.7-25.8 34.55-24.13 37.4-22.45 39.1-19.6 40.8-16.75 40.8-13.1L40.8-13.1Q40.8-9.25 39.12-6.08 37.45-2.9 34.6-1.05 31.75 0.8 28.2 0.8ZM28.6-1.2L28.6-1.2Q31.25-1.2 32.8-2.7 34.35-4.2 35.02-6.6 35.7-9 35.7-11.65L35.7-11.65Q35.7-13.9 35.27-16.07 34.85-18.25 33.95-20.03 33.05-21.8 31.62-22.85 30.2-23.9 28.2-23.9L28.2-23.9Q25.6-23.9 23.95-22.4 22.3-20.9 21.52-18.5 20.75-16.1 20.75-13.35L20.75-13.35Q20.75-10.25 21.6-7.48 22.45-4.7 24.2-2.95 25.95-1.2 28.6-1.2ZM57.1 13.55L57.1 13.55Q52.6 13.55 49.85 12.55 47.1 11.55 45.85 10 44.6 8.45 44.6 6.8L44.6 6.8Q44.6 5.25 45.32 4.08 46.05 2.9 47.12 2.05 48.2 1.2 49.2 0.8L49.2 0.8Q47.6 0.25 46.67-0.68 45.75-1.6 45.75-3.15L45.75-3.15Q45.75-4.9 47.15-6.43 48.55-7.95 50.75-8.3L50.75-8.3Q48.45-9.4 47.07-11.35 45.7-13.3 45.7-15.9L45.7-15.9Q45.7-18.9 47.25-21.13 48.8-23.35 51.22-24.58 53.65-25.8 56.25-25.8L56.25-25.8Q57.9-25.8 59.55-25.33 61.2-24.85 62.6-23.95L62.6-23.95Q63.1-25.35 64.02-26.45 64.95-27.55 66.15-28.18 67.34-28.8 68.65-28.8L68.65-28.8Q69.95-28.8 70.62-28.13 71.3-27.45 71.3-26.3L71.3-26.3Q71.3-25.95 71.09-25.45 70.9-24.95 70.42-24.6 69.95-24.25 69.15-24.25L69.15-24.25Q68.3-24.25 67.75-24.75 67.2-25.25 67.05-26L67.05-26Q65.8-25.8 65.09-24.83 64.4-23.85 64.15-22.7L64.15-22.7Q65.34-21.6 66.07-20.05 66.8-18.5 66.8-16.75L66.8-16.75Q66.8-13.95 65.32-11.75 63.85-9.55 61.45-8.33 59.05-7.1 56.25-7.1L56.25-7.1Q55.3-7.1 54.6-7.23 53.9-7.35 52.9-7.35L52.9-7.35Q51.05-7.35 49.9-6.45 48.75-5.55 49.1-4.3L49.1-4.3Q49.5-3.1 51.55-2.78 53.6-2.45 57.05-2.3L57.05-2.3Q60.9-2.15 63.65-1.4 66.4-0.65 67.87 0.93 69.34 2.5 69.34 5.2L69.34 5.2Q69.34 7.2 68.27 8.78 67.2 10.35 65.42 11.4 63.65 12.45 61.47 13 59.3 13.55 57.1 13.55ZM57.05 11.6L57.05 11.6Q61.35 11.6 63.75 10 66.15 8.4 66.15 6.25L66.15 6.25Q66.15 4.4 64.9 3.43 63.65 2.45 61.5 2.08 59.35 1.7 56.55 1.65L56.55 1.65Q55.2 1.6 53.9 1.53 52.6 1.45 51.4 1.25L51.4 1.25Q50.05 2.15 49.3 3.45 48.55 4.75 48.55 6.2L48.55 6.2Q48.55 8.65 50.87 10.13 53.2 11.6 57.05 11.6ZM56.4-8.9L56.4-8.9Q58.25-8.9 59.47-9.8 60.7-10.7 61.32-12.25 61.95-13.8 61.95-15.75L61.95-15.75Q61.95-17.95 61.3-19.85 60.65-21.75 59.37-22.9 58.1-24.05 56.15-24.05L56.15-24.05Q53.45-24.05 51.97-22.03 50.5-20 50.5-17L50.5-17Q50.5-14.6 51.2-12.78 51.9-10.95 53.22-9.93 54.55-8.9 56.4-8.9ZM84.84 0.8L84.84 0.8Q81.34 0.8 78.49-0.83 75.64-2.45 73.97-5.33 72.29-8.2 72.29-11.9L72.29-11.9Q72.29-15.85 73.94-19 75.59-22.15 78.44-23.98 81.29-25.8 84.84-25.8L84.84-25.8Q88.34-25.8 91.19-24.13 94.04-22.45 95.74-19.6 97.44-16.75 97.44-13.1L97.44-13.1Q97.44-9.25 95.77-6.08 94.09-2.9 91.24-1.05 88.39 0.8 84.84 0.8ZM85.24-1.2L85.24-1.2Q87.89-1.2 89.44-2.7 90.99-4.2 91.67-6.6 92.34-9 92.34-11.65L92.34-11.65Q92.34-13.9 91.92-16.07 91.49-18.25 90.59-20.03 89.69-21.8 88.27-22.85 86.84-23.9 84.84-23.9L84.84-23.9Q82.24-23.9 80.59-22.4 78.94-20.9 78.17-18.5 77.39-16.1 77.39-13.35L77.39-13.35Q77.39-10.25 78.24-7.48 79.09-4.7 80.84-2.95 82.59-1.2 85.24-1.2Z" opacity="1" transform="matrix(1,0,0,1,0,0)" fill="#d2d6dc" class="slogan-text-1" data-fill-palette-color="secondary" id="text-1"></path></svg></g></svg></g></svg></g></svg></g><g transform="matrix(1,0,0,1,75.54432,0)"><svg viewBox="0 0 244.43135999999998 244.43135999999998" height="244.43135999999998" width="244.43135999999998"><g><svg xmlns="http://www.w3.org/2000/svg" viewBox="4 4 24 24" x="0" y="0" height="244.43135999999998" width="244.43135999999998" class="icon-icon-0" data-fill-palette-color="accent" id="icon-0"><g fill="#d2d6dc" data-fill-palette-color="accent"><path d="M23 19h3l-1.5 2h-9L14 19h9ZM17 9v5h9V9H17ZM8 7A1 1 0 1 0 9 8 1 1 0 0 0 8 7ZM21 17H10V28H4V4H21V7H15v9h6ZM11 8a3 3 0 1 0-3 3A3 3 0 0 0 11 8ZM25.5 23h-11L12 19.67V28H28V19.67Z" fill="#d2d6dc" data-fill-palette-color="accent"></path></g></svg></g></svg></g><g></g></svg></g><defs></defs></svg><rect width="264.75372585262005" height="327.2" fill="none" stroke="none" visibility="hidden"></rect></g></svg></g></svg>